# xmcd
#
# Track frame offsets:
#	150
#	12858
#	26359
#	45857
#	63757
#	78267
#	93281
#	105133
#	123215
#	137051
#	149604
#	169392
#
# Disc length: 2445 seconds
#
# Revision: 1
# Processed by: cddbd v1.5PL3 Copyright (c) Steve Scherf et al.
# Submitted via: audiograbber 1.82.02
#
DISCID=88098b0c
DTITLE=Gary Allen - Smoke Rings In The Dark
DYEAR=1900
DGENRE=Country
TTITLE0=Bourbon Borderline
TTITLE1=Cowboy Blues
TTITLE2=Cryin For Nothing
TTITLE3=Dont Tell Mama
TTITLE4=Greenfields
TTITLE5=I'm The One
TTITLE6=Learning To Live With Me
TTITLE7=Loving You Against My Will
TTITLE8=Right Where I Need To Be
TTITLE9=Runaway
TTITLE10=Smoke Rings In The Dark
TTITLE11=Sorry
EXTD=
EXTT0=
EXTT1=
EXTT2=
EXTT3=
EXTT4=
EXTT5=
EXTT6=
EXTT7=
EXTT8=
EXTT9=
EXTT10=
EXTT11=
PLAYORDER=
